<?xml version="1.0" standalone="no"?>
<!DOCTYPE svg PUBLIC "-//W3C//DTD SVG 20010904//EN"
 "http://www.w3.org/TR/2001/REC-SVG-20010904/DTD/svg10.dtd">
<svg version="1.0" xmlns="http://www.w3.org/2000/svg"
 width="512.000000pt" height="512.000000pt" viewBox="0 0 512.000000 512.000000"
 preserveAspectRatio="xMidYMid meet">
<g transform="translate(0.000000,512.000000) scale(0.100000,-0.100000)"
fill="#000000" stroke="none">
<path d="M456 4703 c-4 -5 -15 -8 -24 -9 -41 -2 -118 -49 -174 -104 -18 -19
-34 -36 -34 -39 -7 -27 -18 -51 -23 -51 -4 0 -7 -10 -6 -22 1 -13 0 -27 -4
-33 -10 -17 -9 -85 1 -85 5 0 6 -4 3 -10 -3 -5 -1 -10 5 -10 6 0 9 -4 6 -9 -3
-4 -2 -21 3 -37 6 -21 4 -33 -8 -46 -9 -9 -27 -38 -41 -65 -14 -26 -28 -50
-31 -53 -3 -3 -5 -13 -3 -23 1 -9 -4 -24 -12 -32 -19 -19 -16 -171 3 -167 7 1
12 -1 11 -5 -2 -13 15 -47 33 -66 17 -19 76 -54 94 -55 19 -2 16 -49 -5 -87
-12 -21 -23 -52 -25 -69 -3 -17 -7 -48 -11 -68 -4 -23 -2 -38 4 -38 5 0 9 -20
8 -45 -1 -32 2 -45 12 -45 7 0 11 -4 8 -9 -7 -11 13 -71 24 -71 5 0 15 -12 22
-27 7 -16 18 -28 24 -28 16 0 48 -36 38 -43 -5 -4 -10 -25 -11 -47 -2 -22 -7
-41 -11 -43 -9 -3 -3 -72 7 -72 4 0 6 -12 5 -27 -1 -16 3 -34 9 -40 5 -7 6
-13 3 -13 -4 0 -1 -6 6 -14 7 -8 16 -12 20 -10 4 3 5 -5 3 -16 -2 -12 1 -20
10 -20 7 0 17 -9 20 -20 3 -11 11 -20 17 -20 5 0 23 -9 39 -21 16 -11 29 -17
29 -13 0 3 7 0 17 -7 9 -8 19 -13 22 -11 3 1 5 -17 3 -40 -7 -114 -10 -508 -3
-508 4 0 8 -24 9 -52 1 -29 6 -75 12 -103 6 -27 12 -62 13 -77 1 -16 5 -28 9
-28 5 0 8 -13 8 -29 0 -17 4 -32 9 -35 5 -4 8 -14 6 -24 -1 -9 2 -23 7 -29 6
-7 8 -20 4 -28 -3 -9 0 -15 9 -15 8 0 12 -8 10 -20 -2 -11 0 -22 6 -25 5 -4 9
-17 9 -31 0 -13 4 -24 8 -24 4 0 9 -10 9 -22 1 -13 7 -24 13 -26 5 -2 10 -15
10 -28 0 -13 5 -24 10 -24 6 0 9 -4 8 -8 -4 -10 44 -105 57 -114 5 -4 7 -8 2
-8 -11 0 53 -120 65 -120 5 0 7 -4 4 -8 -3 -5 6 -21 20 -37 13 -15 24 -34 24
-41 0 -6 11 -22 25 -35 13 -13 25 -30 25 -36 0 -7 5 -13 10 -13 6 0 10 -6 10
-12 1 -7 19 -31 40 -53 22 -22 40 -43 40 -48 0 -11 59 -67 71 -67 5 0 8 -3 7
-8 -4 -9 161 -172 173 -172 5 0 9 -5 9 -11 0 -5 5 -7 10 -4 6 3 10 -1 10 -9 0
-9 7 -16 16 -16 8 0 12 -4 9 -10 -3 -5 0 -10 8 -10 8 0 20 -7 27 -15 7 -9 15
-14 17 -12 2 3 18 -9 34 -24 17 -16 37 -29 45 -29 7 0 17 -6 21 -12 9 -15 41
-36 66 -44 9 -4 17 -11 17 -16 0 -5 5 -6 10 -3 5 3 10 1 10 -6 0 -7 3 -9 6 -6
4 3 18 -2 32 -13 13 -11 29 -17 35 -13 6 3 7 1 3 -5 -6 -11 6 -17 27 -13 4 1
10 -6 13 -14 4 -8 17 -15 30 -15 13 0 24 -5 24 -11 0 -6 6 -9 13 -6 6 2 32 -7
56 -20 24 -13 46 -22 49 -19 3 3 12 0 20 -6 13 -12 28 -16 62 -22 9 -1 21 -5
28 -10 6 -4 20 -9 29 -11 10 -2 37 -10 61 -19 23 -8 42 -13 42 -9 0 3 6 1 13
-5 7 -6 27 -9 45 -7 19 2 30 0 27 -5 -4 -6 11 -10 34 -10 23 0 41 -4 41 -8 0
-4 19 -8 43 -7 23 0 57 -5 75 -12 17 -7 32 -10 32 -6 0 5 27 8 59 8 34 0 59
-4 58 -10 -3 -13 122 -19 148 -6 36 17 55 21 55 11 0 -6 9 -6 23 -1 14 5 30 5
40 0 10 -6 17 -6 17 -1 0 5 12 9 28 10 63 2 122 9 128 15 4 4 22 7 40 7 18 0
36 5 39 10 4 6 15 8 26 5 12 -4 21 -1 25 9 4 11 11 13 24 6 12 -6 23 -5 36 4
10 8 29 12 41 10 13 -3 23 0 23 6 0 5 9 10 19 10 11 0 22 4 26 10 3 5 12 7 20
3 8 -3 15 0 15 7 0 7 8 10 20 7 11 -3 20 -2 20 3 0 4 10 11 23 15 12 4 28 9
35 11 6 2 20 6 30 8 9 2 16 9 14 15 -1 7 3 11 10 10 19 -2 58 12 58 21 0 5 14
11 30 15 17 4 30 11 30 16 0 6 5 7 10 4 5 -3 10 -1 10 4 0 6 9 11 19 11 11 0
27 7 35 16 9 8 21 12 27 8 7 -4 9 -3 6 2 -3 5 19 23 49 39 30 16 54 35 54 43
0 7 4 11 9 8 5 -3 24 7 44 22 19 15 45 34 57 42 12 8 36 27 52 43 17 15 37 27
45 27 8 0 13 3 11 7 -4 9 109 122 116 116 2 -3 7 5 11 16 3 12 14 21 22 21 9
0 14 3 11 6 -8 8 35 51 46 46 5 -3 6 0 2 7 -4 6 7 26 28 46 20 19 34 35 30 35
-3 0 6 14 20 31 14 17 26 35 26 40 0 5 6 9 14 9 9 0 13 7 11 20 -2 11 0 20 5
20 5 0 17 14 25 30 9 17 20 28 25 25 6 -3 7 1 4 9 -3 9 -2 16 3 16 10 0 48 70
45 83 -1 4 3 7 9 7 5 0 7 4 4 10 -3 5 -1 10 4 10 6 0 11 3 10 8 -3 17 14 51
22 46 8 -5 13 12 12 44 -1 6 6 12 14 12 8 0 12 4 8 9 -6 11 22 77 44 104 9 11
10 17 3 17 -7 0 -12 5 -12 12 0 6 3 8 7 5 9 -9 35 52 27 64 -3 5 0 9 5 9 6 0
11 9 11 19 0 11 4 22 9 26 6 3 10 13 10 23 2 32 8 67 18 92 6 14 8 30 6 36 -2
7 0 15 6 19 6 3 11 21 11 40 0 19 3 36 8 39 4 2 7 25 6 50 -1 34 3 46 13 46 8
0 11 5 7 11 -10 17 -11 60 -2 87 5 15 4 21 -2 17 -7 -4 -7 2 0 19 6 17 6 27
-1 32 -6 4 -6 11 2 20 18 22 18 163 1 192 -10 15 -11 22 -3 22 7 0 9 5 5 11
-10 17 -11 60 -2 86 4 14 2 27 -6 35 -7 7 -12 29 -11 48 0 19 -3 41 -8 47 -5
7 -10 33 -10 58 0 25 -3 45 -7 45 -4 0 -7 6 -7 13 0 6 -3 22 -7 35 -5 14 -3
22 4 22 6 0 9 4 5 9 -3 6 3 10 12 9 26 0 66 10 72 19 3 5 11 9 18 10 15 3 68
56 65 66 -1 4 3 7 8 7 6 0 10 11 10 24 0 14 5 28 11 31 6 4 8 13 5 20 -3 8 0
15 6 17 13 5 15 157 2 167 -5 3 -10 12 -11 19 -2 6 -4 18 -5 25 -2 6 -11 18
-21 25 -9 7 -15 18 -12 23 4 5 1 9 -4 9 -6 0 -11 4 -11 10 0 5 3 9 8 8 11 -2
65 25 86 44 11 10 24 18 28 18 5 0 6 5 3 10 -3 6 -1 10 4 10 13 0 45 68 44 93
0 12 5 16 14 13 11 -5 13 4 11 42 -2 26 -8 46 -13 45 -6 -1 -11 12 -12 29 0
16 -10 43 -22 59 -22 30 -27 64 -11 74 6 4 8 11 5 16 -4 5 -2 9 3 9 22 0 36
149 19 205 -14 48 -15 50 -13 56 0 3 -7 13 -16 23 -14 14 -15 21 -6 41 6 14
15 25 20 25 4 0 8 7 8 15 0 8 4 15 9 15 4 0 8 10 7 23 -1 13 4 21 12 20 8 -2
12 14 12 55 0 46 -4 60 -20 72 -11 8 -20 21 -20 29 0 15 -46 63 -78 80 -12 6
-32 12 -46 13 -15 1 -26 6 -26 9 0 9 -37 5 -61 -5 -10 -4 -23 -6 -30 -5 -8 1
-27 -3 -44 -10 -16 -7 -35 -14 -41 -15 -7 -1 -19 -8 -28 -15 -9 -7 -16 -10
-16 -5 0 5 -4 5 -8 -1 -21 -29 -49 -34 -86 -14 -20 10 -36 16 -36 13 0 -4 -7
-1 -15 6 -17 14 -144 17 -154 3 -5 -7 -23 -12 -58 -15 -7 -1 -10 -5 -7 -10 3
-4 -2 -8 -10 -8 -9 0 -16 -4 -16 -10 0 -5 -7 -10 -15 -10 -8 0 -15 -4 -15 -8
0 -5 -11 -15 -25 -22 -13 -7 -22 -17 -19 -21 3 -5 -6 -20 -20 -34 -14 -14 -22
-25 -19 -25 4 0 1 -6 -5 -12 -10 -10 -22 -3 -56 35 -31 33 -51 47 -71 47 -14
0 -24 3 -21 8 2 4 -30 7 -71 7 -52 0 -78 -4 -81 -13 -2 -6 -8 -10 -13 -6 -11
6 -69 -17 -69 -28 0 -5 -5 -8 -11 -8 -7 0 -35 -24 -63 -52 l-52 -53 -42 13
c-25 9 -39 18 -35 25 4 6 0 8 -10 4 -10 -3 -17 -3 -17 2 0 8 -53 26 -56 19 -1
-2 -11 5 -21 15 -11 9 -23 14 -26 10 -4 -3 -7 -1 -7 6 0 7 -7 11 -15 8 -8 -4
-17 -2 -20 4 -4 5 -10 7 -15 4 -5 -3 -11 -1 -15 5 -4 6 -11 8 -16 5 -5 -4 -9
-1 -9 5 0 7 -7 10 -15 7 -8 -4 -17 -2 -20 3 -4 6 -17 10 -31 10 -13 0 -24 5
-24 11 0 5 -4 8 -8 5 -5 -3 -20 1 -34 8 -15 8 -31 10 -39 5 -8 -4 -16 -4 -20
2 -3 6 -20 11 -37 11 -18 1 -32 5 -32 10 0 4 -20 8 -45 8 -25 0 -45 4 -45 8 0
5 -25 7 -55 5 -30 -1 -55 1 -55 6 0 4 -22 7 -50 7 -27 -1 -50 2 -50 7 0 4 -6
5 -12 0 -18 -10 -148 -10 -148 1 0 5 -6 4 -12 -1 -14 -10 -74 -10 -85 0 -3 4
-12 2 -20 -4 -7 -6 -13 -8 -13 -4 0 4 -7 2 -15 -5 -8 -7 -15 -9 -15 -4 0 5 -5
2 -10 -6 -5 -8 -10 -10 -10 -3 0 7 -11 10 -27 7 -16 -2 -54 -6 -85 -10 -32 -4
-58 -10 -58 -14 0 -4 -16 -6 -36 -5 -21 1 -38 -4 -41 -11 -5 -13 -20 -13 -39
-1 -7 4 -15 0 -18 -9 -3 -9 -13 -14 -21 -10 -8 3 -20 0 -27 -7 -7 -7 -22 -13
-33 -14 -30 -2 -48 -8 -72 -21 -12 -7 -30 -13 -40 -15 -35 -7 -141 -54 -163
-73 -8 -7 -19 -13 -25 -13 -23 -2 -45 -13 -45 -22 0 -6 -4 -7 -10 -4 -5 3 -10
1 -10 -5 0 -6 -4 -9 -10 -5 -5 3 -18 -3 -30 -15 -12 -12 -20 -15 -20 -7 -1 8
-5 7 -13 -4 -7 -9 -22 -21 -34 -27 -19 -11 -26 -8 -55 21 -31 30 -62 50 -72
44 -2 -1 -12 6 -22 15 -11 9 -30 19 -44 21 -14 2 -33 7 -42 11 -21 9 -153 -4
-189 -19 -11 -4 -26 3 -43 20 -14 14 -26 23 -26 20 0 -3 -15 5 -33 19 -18 14
-43 27 -55 29 -12 2 -24 6 -27 9 -3 3 -22 2 -41 -2 -18 -4 -34 -5 -34 -1 0 4
-21 5 -47 4 -43 -3 -78 11 -69 26 3 3 -4 24 -14 46 -11 22 -19 36 -20 30 0 -5
-15 7 -33 28 -19 20 -39 37 -45 37 -7 0 -12 5 -12 10 0 12 -143 14 -154 3z"/>
</g>
</svg>
